<mxfile host="app.diagrams.net" modified="2024-04-24T11:48:37.925Z" agent="Mozilla/5.0 (Windows NT 10.0; Win64; x64) AppleWebKit/537.36 (KHTML, like Gecko) Chrome/120.0.0.0 YaBrowser/24.1.0.0 Safari/537.36" etag="G_JE_lYnE0tKhr7XTpBz" version="21.7.2" type="device">
  <diagram name="Страница — 1" id="X9cr6I11xhXb7269aOa8">
    <mxGraphModel dx="1002" dy="585" grid="1" gridSize="10" guides="1" tooltips="1" connect="1" arrows="1" fold="1" page="1" pageScale="1" pageWidth="1169" pageHeight="827" math="0" shadow="0">
      <root>
        <mxCell id="0" />
        <mxCell id="1" parent="0" />
        <mxCell id="TSQU76606EriCM4yAfEv-3" value="" style="edgeStyle=orthogonalEdgeStyle;rounded=0;orthogonalLoop=1;jettySize=auto;html=1;" edge="1" parent="1" source="TSQU76606EriCM4yAfEv-1" target="TSQU76606EriCM4yAfEv-2">
          <mxGeometry relative="1" as="geometry" />
        </mxCell>
        <mxCell id="TSQU76606EriCM4yAfEv-5" value="" style="edgeStyle=orthogonalEdgeStyle;rounded=0;orthogonalLoop=1;jettySize=auto;html=1;" edge="1" parent="1" source="TSQU76606EriCM4yAfEv-1" target="TSQU76606EriCM4yAfEv-4">
          <mxGeometry relative="1" as="geometry" />
        </mxCell>
        <mxCell id="TSQU76606EriCM4yAfEv-1" value="Animals" style="rounded=1;whiteSpace=wrap;html=1;" vertex="1" parent="1">
          <mxGeometry x="410" y="40" width="220" height="60" as="geometry" />
        </mxCell>
        <mxCell id="TSQU76606EriCM4yAfEv-8" value="" style="edgeStyle=orthogonalEdgeStyle;rounded=0;orthogonalLoop=1;jettySize=auto;html=1;" edge="1" parent="1" source="TSQU76606EriCM4yAfEv-2" target="TSQU76606EriCM4yAfEv-7">
          <mxGeometry relative="1" as="geometry" />
        </mxCell>
        <mxCell id="TSQU76606EriCM4yAfEv-10" value="" style="edgeStyle=orthogonalEdgeStyle;rounded=0;orthogonalLoop=1;jettySize=auto;html=1;" edge="1" parent="1" source="TSQU76606EriCM4yAfEv-2" target="TSQU76606EriCM4yAfEv-9">
          <mxGeometry relative="1" as="geometry" />
        </mxCell>
        <mxCell id="TSQU76606EriCM4yAfEv-12" value="" style="edgeStyle=orthogonalEdgeStyle;rounded=0;orthogonalLoop=1;jettySize=auto;html=1;" edge="1" parent="1" source="TSQU76606EriCM4yAfEv-2" target="TSQU76606EriCM4yAfEv-11">
          <mxGeometry relative="1" as="geometry" />
        </mxCell>
        <mxCell id="TSQU76606EriCM4yAfEv-2" value="Pets" style="whiteSpace=wrap;html=1;rounded=1;" vertex="1" parent="1">
          <mxGeometry x="220" y="140" width="180" height="60" as="geometry" />
        </mxCell>
        <mxCell id="TSQU76606EriCM4yAfEv-16" style="edgeStyle=orthogonalEdgeStyle;rounded=0;orthogonalLoop=1;jettySize=auto;html=1;" edge="1" parent="1" source="TSQU76606EriCM4yAfEv-4" target="TSQU76606EriCM4yAfEv-13">
          <mxGeometry relative="1" as="geometry" />
        </mxCell>
        <mxCell id="TSQU76606EriCM4yAfEv-17" style="edgeStyle=orthogonalEdgeStyle;rounded=0;orthogonalLoop=1;jettySize=auto;html=1;entryX=0.5;entryY=0;entryDx=0;entryDy=0;" edge="1" parent="1" source="TSQU76606EriCM4yAfEv-4" target="TSQU76606EriCM4yAfEv-14">
          <mxGeometry relative="1" as="geometry" />
        </mxCell>
        <mxCell id="TSQU76606EriCM4yAfEv-18" style="edgeStyle=orthogonalEdgeStyle;rounded=0;orthogonalLoop=1;jettySize=auto;html=1;entryX=0.5;entryY=0;entryDx=0;entryDy=0;" edge="1" parent="1" source="TSQU76606EriCM4yAfEv-4" target="TSQU76606EriCM4yAfEv-15">
          <mxGeometry relative="1" as="geometry" />
        </mxCell>
        <mxCell id="TSQU76606EriCM4yAfEv-4" value="Pack animals" style="whiteSpace=wrap;html=1;rounded=1;" vertex="1" parent="1">
          <mxGeometry x="640" y="140" width="180" height="60" as="geometry" />
        </mxCell>
        <mxCell id="TSQU76606EriCM4yAfEv-7" value="Dogs" style="whiteSpace=wrap;html=1;rounded=1;" vertex="1" parent="1">
          <mxGeometry x="110" y="250" width="120" height="60" as="geometry" />
        </mxCell>
        <mxCell id="TSQU76606EriCM4yAfEv-9" value="Cats" style="whiteSpace=wrap;html=1;rounded=1;" vertex="1" parent="1">
          <mxGeometry x="250" y="250" width="120" height="60" as="geometry" />
        </mxCell>
        <mxCell id="TSQU76606EriCM4yAfEv-11" value="Hamsters" style="whiteSpace=wrap;html=1;rounded=1;" vertex="1" parent="1">
          <mxGeometry x="390" y="250" width="120" height="60" as="geometry" />
        </mxCell>
        <mxCell id="TSQU76606EriCM4yAfEv-13" value="Camels" style="whiteSpace=wrap;html=1;rounded=1;" vertex="1" parent="1">
          <mxGeometry x="530" y="250" width="120" height="60" as="geometry" />
        </mxCell>
        <mxCell id="TSQU76606EriCM4yAfEv-14" value="Horses" style="whiteSpace=wrap;html=1;rounded=1;" vertex="1" parent="1">
          <mxGeometry x="670" y="250" width="120" height="60" as="geometry" />
        </mxCell>
        <mxCell id="TSQU76606EriCM4yAfEv-15" value="Donkeys" style="whiteSpace=wrap;html=1;rounded=1;" vertex="1" parent="1">
          <mxGeometry x="810" y="250" width="120" height="60" as="geometry" />
        </mxCell>
      </root>
    </mxGraphModel>
  </diagram>
</mxfile>
